<svg width="130" height="30" viewBox="0 0 130 30" fill="none" xmlns="http://www.w3.org/2000/svg">
<path d="M17.5047 14.7391L13.9953 13.1016C13.6891 12.9594 13.4375 13.1187 13.4375 13.4578V16.5422C13.4375 16.8813 13.6891 17.0406 13.9953 16.8984L17.5031 15.2609C17.8109 15.1172 17.8109 14.8828 17.5047 14.7391ZM15 0C6.71562 0 0 6.71562 0 15C0 23.2844 6.71562 30 15 30C23.2844 30 30 23.2844 30 15C30 6.71562 23.2844 0 15 0ZM15 21.0938C7.32188 21.0938 7.1875 20.4016 7.1875 15C7.1875 9.59844 7.32188 8.90625 15 8.90625C22.6781 8.90625 22.8125 9.59844 22.8125 15C22.8125 20.4016 22.6781 21.0938 15 21.0938Z" fill="#5C5C5E"/>
<path d="M65 0C56.7155 0 50 6.75638 50 15.0913C50 22.6234 55.4855 28.8666 62.657 30V19.4527H58.847V15.0913H62.657V11.7667C62.657 7.98481 64.895 5.89617 68.3225 5.89617C69.9635 5.89617 71.6795 6.19045 71.6795 6.19045V9.90291H69.7895C67.925 9.90291 67.3445 11.0665 67.3445 12.2602V15.0913H71.504L70.8395 19.4527H67.3445V30C74.5145 28.8682 80 22.6219 80 15.0913C80 6.75638 73.2845 0 65 0Z" fill="#5C5C5E"/>
<path d="M115 0C106.667 0 100 6.66667 100 15C100 23.3333 106.667 30 115 30C123.333 30 130 23.3333 130 15C130 6.66667 123.333 0 115 0ZM115 11.6667C116.833 11.6667 118.333 13.1667 118.333 15C118.333 16.8333 116.833 18.3333 115 18.3333C113.167 18.3333 111.667 16.8333 111.667 15C111.667 13.1667 113.167 11.6667 115 11.6667ZM119.667 8.33333C119.667 7.16667 120.667 6.33333 121.667 6.33333C122.667 6.33333 123.667 7.33333 123.667 8.33333C123.667 9.33333 122.833 10.3333 121.667 10.3333C120.5 10.3333 119.667 9.5 119.667 8.33333ZM115 26.6667C108.5 26.6667 103.333 21.5 103.333 15H108.333C108.333 18.6667 111.333 21.6667 115 21.6667C118.667 21.6667 121.667 18.6667 121.667 15H126.667C126.667 21.5 121.5 26.6667 115 26.6667Z" fill="#5C5C5E"/>
</svg>
